<?xml version="1.0" standalone="no"?>
<!DOCTYPE svg PUBLIC "-//W3C//DTD SVG 1.1//EN"
  "http://www.w3.org/Graphics/SVG/1.1/DTD/svg11.dtd">
<svg width="192mm" height="5mm" viewBox="-82 -82.99999999999999 192 5" xmlns="http://www.w3.org/2000/svg" version="1.1">
	<title>svgOutput</title>
	<desc>made with tinkercad</desc>
<path d="M 109 -78.99999999999999 L 99 -78.99999999999999 L 89.05000305175781 -78.99999999999999 L 87.5999984741211 -78.99999999999999 L 78.99800109863281 -78.99999999999999 L 25.25 -78.99999999999999 L 24.49799919128418 -78.99999999999999 L 23.799999237060547 -78.99999999999999 L 14 -78.99999999999999 L 4.050000190734863 -78.99999999999999 L 2.5999999046325684 -78.99999999999999 L -6.002999782562256 -78.99999999999999 L -33.97600173950195 -78.99999999999999 L -59.75 -78.99999999999999 L -60.50299835205078 -78.99999999999999 L -61.20000076293945 -78.99999999999999 L -71 -78.99999999999999 L -81 -78.99999999999999 L -81 -81.99999999999999 L -71 -81.99999999999999 L -61.20000076293945 -81.99999999999999 L -60.50299835205078 -81.99999999999999 L -59.75 -81.99999999999999 L -33.97600173950195 -81.99999999999999 L -6.002999782562256 -81.99999999999999 L 2.5999999046325684 -81.99999999999999 L 4.050000190734863 -81.99999999999999 L 14 -81.99999999999999 L 24.49799919128418 -81.99999999999999 L 78.99800109863281 -81.99999999999999 L 99 -81.99999999999999 L 109 -81.99999999999999 L 109 -78.99999999999999 z" fill="none" stroke="rgb(255,0,0)" stroke-width="0.001mm" />
</svg>